<?xml version="1.0" encoding="UTF-8"?>
<svg id="Layer_1" data-name="Layer 1" xmlns="http://www.w3.org/2000/svg" viewBox="0 0 44.46 39">
  <defs>
    <style>
      .cls-1 {
        stroke-width: 0px;
      }
    </style>
  </defs>
  <path class="cls-1" d="m44.46,6.15v.69c-.05.13-.12.25-.16.39-1.66,5.78-3.31,11.56-4.96,17.34-.34,1.19-.65,1.43-1.86,1.43-7.64,0-15.28,0-22.92,0-.85,0-1.43.53-1.44,1.29,0,.76.58,1.29,1.42,1.31.12,0,.23,0,.35,0,7.55,0,15.11,0,22.66,0,.16,0,.32,0,.48,0,.54.05.93.32,1.13.82.36.87-.28,1.76-1.28,1.77-.63.01-1.27,0-1.9,0,2,.45,3.42,2.2,3.27,4.08-.16,2.09-1.69,3.59-3.77,3.71-1.82.1-3.62-1.32-3.95-3.11-.2-1.09,0-2.1.63-3.01.62-.9,1.51-1.42,2.57-1.65h-17.17c2.43.51,3.52,2.45,3.35,4.17-.21,2.1-1.83,3.59-3.86,3.6-1.98.02-3.62-1.45-3.88-3.48-.21-1.66.77-3.74,3.25-4.3-.65-.02-1.3,0-1.94-.02-1.67-.05-2.93-.8-3.6-2.33-.64-1.44-.44-2.84.58-4.05.38-.45.9-.78,1.4-1.2-1.55-6.96-3.11-13.98-4.68-21.01h-.51c-1.97,0-3.94-.02-5.9.01-.81.02-1.4-.21-1.75-.97v-.69C.27.44.63,0,1.27,0,3.91,0,6.54,0,9.17,0c.69,0,1.15.41,1.32,1.1.07.28.12.56.19.85.24,1.08.48,2.16.73,3.25h.56c10.25,0,20.49,0,30.74-.01.81,0,1.4.22,1.75.96Z"/>
</svg>