<?xml version="1.0" encoding="UTF-8"?>
<svg id="Layer_2" data-name="Layer 2" xmlns="http://www.w3.org/2000/svg" viewBox="0 0 323.45 291.79">
  <defs>
    <style>
      .cls-1 {
        fill: #666;
      }

      .cls-1, .cls-2 {
        stroke-width: 0px;
      }

      .cls-2 {
        fill: #c1272d;
      }
    </style>
  </defs>
  <g id="Layer_1-2" data-name="Layer 1">
    <g>
      <path class="cls-1" d="m162.21,277.21c-45.42,4.72-90.85,9.07-136.27,14.35C8.39,293.6-.11,281.75,0,268.54c.26-30.67.08-61.31.08-91.96,0-14.77-.11-29.52.05-44.3.14-12.64,7.95-23.1,19.74-26.79,1.82-.57,3.73-.81,5.61-1.04,24.09-2.95,48.17-5.99,72.26-8.72,8.2-.93,15.85-3.43,23.3-7.44,8.03-4.32,16.09-8.59,24.29-12.49,3.56-1.69,7.52-3.02,11.3-3.42,46.8-5.01,93.61-9.86,140.41-14.67,15.21-1.56,26.32,8.03,26.34,22.96.09,51.86.08,103.73,0,155.61-.02,11.7-7.34,22.23-17.42,25.5-1.93.63-3.98.87-5.97,1.08-45.93,4.8-91.85,9.57-137.78,14.34Zm-55.63-90.26c0,11.16-.07,22.32.01,33.47.15,19.71,20.28,29.25,37.55,17.69,19.68-13.17,39.03-26.89,58.91-39.71,18.65-12.02,14.73-36.61-.25-42.88-19.69-8.25-38.64-17.96-57.96-26.95-18.36-8.55-38.16,4.75-38.25,25.65-.05,10.91,0,21.82,0,32.73Z"/>
      <path class="cls-2" d="m.08,93.44c0-1.5,0-2.6,0-3.7,0-19.23-.03-38.46.01-57.7C.12,17.1,9.16,7.22,24.19,5.64,41.63,3.82,59.07,2.07,76.52.17c6.05-.66,11.27.6,15.92,3.92,11.51,8.2,23.13,16.27,34.64,24.48,9.16,6.53,19.56,9.1,31.51,7.82,47.05-5.01,94.11-9.85,141.17-14.71,12.94-1.34,22.83,6.81,23.01,18.78,0,.58-.13,1.18-.23,2.05-.78-.24-1.35-.36-1.86-.59-8.04-3.73-16.71-4.62-25.95-3.64-45.42,4.81-90.85,9.51-136.27,14.18-8.02.82-15.65,2.92-23.02,6.95-8.11,4.44-16.31,8.75-24.66,12.62-4.15,1.93-8.73,3.42-13.12,3.94-21.08,2.45-42.16,4.5-63.24,6.69-17.32,1.8-18.69,2.22-34.32,10.78Z"/>
      <path class="cls-2" d="m127.07,184.49c0-10.66-.03-21.32.01-31.98.02-5.7,3-7.73,7.95-5.42,18.75,8.78,37.49,17.58,56.21,26.41,5.39,2.54,5.36,5.37-.07,9.05-18.63,12.63-37.26,25.25-55.9,37.86-5.45,3.69-8.19,2.37-8.2-3.93-.02-10.66,0-21.32,0-31.98Z"/>
    </g>
  </g>
</svg>