<?xml version="1.0" encoding="UTF-8"?>
<svg id="Layer_1" data-name="Layer 1" xmlns="http://www.w3.org/2000/svg" viewBox="0 0 35.41 36.03">
  <defs>
    <style>
      .cls-1 {
        fill: #060606;
      }

      .cls-1, .cls-2 {
        stroke-width: 0px;
      }

      .cls-2 {
        fill: #050505;
      }
    </style>
  </defs>
  <path class="cls-2" d="m17.4,35.97c-4.93,0-9.87-.11-14.79.05-2.36.07-2.94-.93-2.46-2.99.33-1.4.62-2.83,1.15-4.16,2.95-7.4,10.29-11.13,19.54-10,7.64.93,13.12,6.23,14.44,13.8.42,2.41-.08,3.46-2.76,3.36-5.03-.18-10.08-.05-15.12-.05Z"/>
  <path class="cls-1" d="m26.17,8.66c-.06,4.58-3.96,8.48-8.45,8.48-4.62,0-8.6-4.19-8.43-8.84C9.47,3.69,13.41-.11,17.91,0c4.52.11,8.33,4.1,8.26,8.66Z"/>
</svg>